<?xml version="1.0" encoding="UTF-8" standalone="no"?>
<!DOCTYPE svg PUBLIC "-//W3C//DTD SVG 1.1//EN"
 "http://www.w3.org/Graphics/SVG/1.1/DTD/svg11.dtd">
<!-- Generated by graphviz version 12.1.1 (20240910.0053)
 -->
<!-- Title: INFRA Pages: 1 -->
<svg width="756pt" height="512pt"
 viewBox="0.00 0.00 755.81 512.00" xmlns="http://www.w3.org/2000/svg" xmlns:xlink="http://www.w3.org/1999/xlink">
<g id="graph0" class="graph" transform="scale(1 1) rotate(0) translate(4 508)">
<title>INFRA</title>
<polygon fill="white" stroke="none" points="-4,4 -4,-508 751.81,-508 751.81,4 -4,4"/>
<!-- append_website -->
<g id="node1" class="node">
<title>append_website</title>
<path fill="#fff5cd" stroke="black" stroke-width="2" d="M446.45,-65.45C446.45,-69.07 408.16,-72 361.01,-72 313.87,-72 275.57,-69.07 275.57,-65.45 275.57,-65.45 275.57,-6.55 275.57,-6.55 275.57,-2.93 313.87,0 361.01,0 408.16,0 446.45,-2.93 446.45,-6.55 446.45,-6.55 446.45,-65.45 446.45,-65.45"/>
<path fill="none" stroke="black" stroke-width="2" d="M446.45,-65.45C446.45,-61.84 408.16,-58.91 361.01,-58.91 313.87,-58.91 275.57,-61.84 275.57,-65.45"/>
<text text-anchor="middle" x="361.01" y="-40.2" font-family="Arial" font-size="14.00">append_website</text>
<text text-anchor="middle" x="361.01" y="-23.4" font-family="Arial" font-size="14.00">(google_storage_bucket)</text>
</g>
<!-- append_obj -->
<g id="node2" class="node">
<title>append_obj</title>
<path fill="#fff5cd" stroke="black" stroke-width="2" d="M216.03,-173.45C216.03,-177.07 167.61,-180 108.01,-180 48.41,-180 0,-177.07 0,-173.45 0,-173.45 0,-114.55 0,-114.55 0,-110.93 48.41,-108 108.01,-108 167.61,-108 216.03,-110.93 216.03,-114.55 216.03,-114.55 216.03,-173.45 216.03,-173.45"/>
<path fill="none" stroke="black" stroke-width="2" d="M216.03,-173.45C216.03,-169.84 167.61,-166.91 108.01,-166.91 48.41,-166.91 0,-169.84 0,-173.45"/>
<text text-anchor="middle" x="108.01" y="-148.2" font-family="Arial" font-size="14.00">append_obj</text>
<text text-anchor="middle" x="108.01" y="-131.4" font-family="Arial" font-size="14.00">(google_storage_bucket_object)</text>
</g>
<!-- append_obj&#45;&gt;append_website -->
<g id="edge1" class="edge">
<title>append_obj&#45;&gt;append_website</title>
<path fill="none" stroke="black" d="M189.46,-108.88C215.73,-97.87 244.98,-85.62 271.78,-74.39"/>
<polygon fill="black" stroke="black" points="273.04,-77.65 280.92,-70.56 270.34,-71.19 273.04,-77.65"/>
</g>
<!-- storage_iam_binding -->
<g id="node3" class="node">
<title>storage_iam_binding</title>
<path fill="#e6e6e6" stroke="black" stroke-width="2" d="M476.1,-180C476.1,-180 245.93,-180 245.93,-180 239.93,-180 233.93,-174 233.93,-168 233.93,-168 233.93,-120 233.93,-120 233.93,-114 239.93,-108 245.93,-108 245.93,-108 476.1,-108 476.1,-108 482.1,-108 488.1,-114 488.1,-120 488.1,-120 488.1,-168 488.1,-168 488.1,-174 482.1,-180 476.1,-180"/>
<text text-anchor="middle" x="361.01" y="-148.2" font-family="Arial" font-size="14.00">storage_iam_binding</text>
<text text-anchor="middle" x="361.01" y="-131.4" font-family="Arial" font-size="14.00">(google_storage_bucket_iam_binding)</text>
</g>
<!-- storage_iam_binding&#45;&gt;append_website -->
<g id="edge2" class="edge">
<title>storage_iam_binding&#45;&gt;append_website</title>
<path fill="none" stroke="black" d="M361.01,-107.7C361.01,-99.93 361.01,-91.57 361.01,-83.43"/>
<polygon fill="black" stroke="black" points="364.51,-83.66 361.01,-73.66 357.51,-83.66 364.51,-83.66"/>
</g>
<!-- append_website_cdn -->
<g id="node4" class="node">
<title>append_website_cdn</title>
<path fill="#b7e0ff" stroke="black" stroke-width="2" d="M732.31,-180C732.31,-180 517.71,-180 517.71,-180 511.71,-180 505.71,-174 505.71,-168 505.71,-168 505.71,-120 505.71,-120 505.71,-114 511.71,-108 517.71,-108 517.71,-108 732.31,-108 732.31,-108 738.31,-108 744.31,-114 744.31,-120 744.31,-120 744.31,-168 744.31,-168 744.31,-174 738.31,-180 732.31,-180"/>
<text text-anchor="middle" x="625.01" y="-148.2" font-family="Arial" font-size="14.00">append_website_cdn</text>
<text text-anchor="middle" x="625.01" y="-131.4" font-family="Arial" font-size="14.00">(google_compute_backend_bucket)</text>
</g>
<!-- append_website_cdn&#45;&gt;append_website -->
<g id="edge3" class="edge">
<title>append_website_cdn&#45;&gt;append_website</title>
<path fill="none" stroke="black" d="M536.74,-107.56C509.87,-96.77 480.29,-84.89 453.18,-74"/>
<polygon fill="black" stroke="black" points="454.51,-70.77 443.93,-70.29 451.9,-77.26 454.51,-70.77"/>
</g>
<!-- append_compute_global_address -->
<g id="node5" class="node">
<title>append_compute_global_address</title>
<path fill="#e78f81" stroke="black" stroke-width="2" d="M471.81,-396C471.81,-396 264.22,-396 264.22,-396 258.22,-396 252.22,-390 252.22,-384 252.22,-384 252.22,-336 252.22,-336 252.22,-330 258.22,-324 264.22,-324 264.22,-324 471.81,-324 471.81,-324 477.81,-324 483.81,-330 483.81,-336 483.81,-336 483.81,-384 483.81,-384 483.81,-390 477.81,-396 471.81,-396"/>
<text text-anchor="middle" x="368.01" y="-364.2" font-family="Arial" font-size="14.00">append_compute_global_address</text>
<text text-anchor="middle" x="368.01" y="-347.4" font-family="Arial" font-size="14.00">(google_compute_global_address)</text>
</g>
<!-- append_compute_url_map -->
<g id="node6" class="node">
<title>append_compute_url_map</title>
<path fill="#e78f81" stroke="black" stroke-width="2" d="M706.62,-288C706.62,-288 543.41,-288 543.41,-288 537.41,-288 531.41,-282 531.41,-276 531.41,-276 531.41,-228 531.41,-228 531.41,-222 537.41,-216 543.41,-216 543.41,-216 706.62,-216 706.62,-216 712.62,-216 718.62,-222 718.62,-228 718.62,-228 718.62,-276 718.62,-276 718.62,-282 712.62,-288 706.62,-288"/>
<text text-anchor="middle" x="625.01" y="-256.2" font-family="Arial" font-size="14.00">append_compute_url_map</text>
<text text-anchor="middle" x="625.01" y="-239.4" font-family="Arial" font-size="14.00">(google_compute_url_map)</text>
</g>
<!-- append_compute_url_map&#45;&gt;append_website_cdn -->
<g id="edge4" class="edge">
<title>append_compute_url_map&#45;&gt;append_website_cdn</title>
<path fill="none" stroke="black" d="M625.01,-215.7C625.01,-207.93 625.01,-199.57 625.01,-191.43"/>
<polygon fill="black" stroke="black" points="628.51,-191.66 625.01,-181.66 621.51,-191.66 628.51,-191.66"/>
</g>
<!-- append_target_proxy -->
<g id="node7" class="node">
<title>append_target_proxy</title>
<path fill="#e78f81" stroke="black" stroke-width="2" d="M735.81,-396C735.81,-396 514.22,-396 514.22,-396 508.22,-396 502.22,-390 502.22,-384 502.22,-384 502.22,-336 502.22,-336 502.22,-330 508.22,-324 514.22,-324 514.22,-324 735.81,-324 735.81,-324 741.81,-324 747.81,-330 747.81,-336 747.81,-336 747.81,-384 747.81,-384 747.81,-390 741.81,-396 735.81,-396"/>
<text text-anchor="middle" x="625.01" y="-364.2" font-family="Arial" font-size="14.00">append_target_proxy</text>
<text text-anchor="middle" x="625.01" y="-347.4" font-family="Arial" font-size="14.00">(google_compute_target_http_proxy)</text>
</g>
<!-- append_target_proxy&#45;&gt;append_compute_url_map -->
<g id="edge5" class="edge">
<title>append_target_proxy&#45;&gt;append_compute_url_map</title>
<path fill="none" stroke="black" d="M625.01,-323.7C625.01,-315.93 625.01,-307.57 625.01,-299.43"/>
<polygon fill="black" stroke="black" points="628.51,-299.66 625.01,-289.66 621.51,-299.66 628.51,-299.66"/>
</g>
<!-- append_global_forwarding_rule -->
<g id="node8" class="node">
<title>append_global_forwarding_rule</title>
<path fill="#e78f81" stroke="black" stroke-width="2" d="M623.15,-504C623.15,-504 368.87,-504 368.87,-504 362.87,-504 356.87,-498 356.87,-492 356.87,-492 356.87,-444 356.87,-444 356.87,-438 362.87,-432 368.87,-432 368.87,-432 623.15,-432 623.15,-432 629.15,-432 635.15,-438 635.15,-444 635.15,-444 635.15,-492 635.15,-492 635.15,-498 629.15,-504 623.15,-504"/>
<text text-anchor="middle" x="496.01" y="-472.2" font-family="Arial" font-size="14.00">append_global_forwarding_rule</text>
<text text-anchor="middle" x="496.01" y="-455.4" font-family="Arial" font-size="14.00">(google_compute_global_forwarding_rule)</text>
</g>
<!-- append_global_forwarding_rule&#45;&gt;append_compute_global_address -->
<g id="edge6" class="edge">
<title>append_global_forwarding_rule&#45;&gt;append_compute_global_address</title>
<path fill="none" stroke="black" d="M453.39,-431.7C442.38,-422.59 430.42,-412.68 419.02,-403.24"/>
<polygon fill="black" stroke="black" points="421.55,-400.79 411.61,-397.11 417.08,-406.18 421.55,-400.79"/>
</g>
<!-- append_global_forwarding_rule&#45;&gt;append_target_proxy -->
<g id="edge7" class="edge">
<title>append_global_forwarding_rule&#45;&gt;append_target_proxy</title>
<path fill="none" stroke="black" d="M538.97,-431.7C550.07,-422.59 562.12,-412.68 573.6,-403.24"/>
<polygon fill="black" stroke="black" points="575.57,-406.16 581.08,-397.1 571.13,-400.75 575.57,-406.16"/>
</g>
</g>
</svg>
